<?xml version="1.0" encoding="UTF-8"?>
<!DOCTYPE svg PUBLIC "-//W3C//DTD SVG 1.1//EN" "http://www.w3.org/Graphics/SVG/1.1/DTD/svg11.dtd">
<!-- Creator: CorelDRAW X7 -->
<svg xmlns="http://www.w3.org/2000/svg" xml:space="preserve" width="209.101mm" height="209.101mm" version="1.1" style="shape-rendering:geometricPrecision; text-rendering:geometricPrecision; image-rendering:optimizeQuality; fill-rule:evenodd; clip-rule:evenodd"
viewBox="0 0 48957 48957"
 xmlns:xlink="http://www.w3.org/1999/xlink">
 <defs>
  <style type="text/css">
   <![CDATA[
    .fil0 {fill:#FEFEFE}
   ]]>
  </style>
 </defs>
 <g id="Слой_x0020_1">
  <metadata id="CorelCorpID_0Corel-Layer"/>
  <path class="fil0" d="M24478 0c13520,0 24479,10959 24479,24478 0,13520 -10959,24479 -24479,24479 -13519,0 -24478,-10959 -24478,-24479 0,-13519 10959,-24478 24478,-24478zm-531 7667c-1008,106 -1722,208 -2662,588 -1270,515 -2366,1293 -3213,2219 -1986,2170 -2802,5328 -1944,8264 466,1593 1328,2938 2495,4011 1510,1389 3651,2388 6421,2266 1215,-54 2342,-443 3390,-939 462,-219 934,-545 1327,-839 1700,-1270 2901,-3249 3282,-5394 331,-1862 27,-3790 -817,-5454 -937,-1846 -2590,-3369 -4544,-4132 -978,-383 -2458,-725 -3735,-590zm228 5094c-547,76 -909,142 -1388,407 -1204,666 -2020,1961 -1886,3498 159,1837 1847,3457 3904,3254 1841,-181 3457,-1802 3259,-3890 -103,-1076 -588,-1828 -1201,-2384 -570,-518 -1651,-1030 -2688,-885zm-3239 19361c-28,66 -4010,4038 -4569,4590 -269,265 -607,573 -792,1040 -884,2231 1217,4132 3219,3408 478,-173 777,-444 1081,-751 281,-284 620,-618 916,-916 320,-321 604,-601 917,-915l1831 -1834c141,-143 308,-314 463,-463 107,-103 365,-396 473,-460 86,30 390,359 471,441 154,155 295,301 462,465 295,288 618,614 918,914l2757 2759c315,316 605,582 1075,756 2094,774 4119,-1323 3243,-3390 -201,-474 -462,-717 -787,-1043 -317,-318 -628,-640 -927,-926l-1831 -1833c-311,-315 -586,-587 -918,-915l-916 -927 1187 -337c1117,-326 2265,-851 3250,-1409 678,-384 1283,-757 1575,-1519 695,-1807 -589,-3510 -2294,-3538 -1017,-16 -1523,516 -2238,860 -740,357 -1366,626 -2240,854 -870,227 -1800,354 -2766,354 -1949,-1 -3553,-473 -5005,-1189 -725,-359 -1233,-884 -2218,-879 -2257,11 -3444,2768 -1724,4420 510,490 2298,1357 3025,1631 630,237 1106,400 1755,583 131,37 518,110 607,169z"/>
 </g>
</svg>
